<mxfile>
    <diagram id="fSqGF5DPaqLaa6KoUcw9" name="第 1 页">
        <mxGraphModel dx="722" dy="628" grid="0" gridSize="10" guides="1" tooltips="1" connect="1" arrows="1" fold="1" page="1" pageScale="1" pageWidth="800" pageHeight="700" math="0" shadow="0">
            <root>
                <mxCell id="0"/>
                <mxCell id="1" parent="0"/>
                <mxCell id="3" value="" style="shape=image;verticalLabelPosition=bottom;labelBackgroundColor=#ffffff;verticalAlign=top;aspect=fixed;imageAspect=0;image=data:image/png,iVBORw0KGgoAAAANSUhEUgAAAIAAAACACAYAAADDPmHLAAAW1klEQVR4Xu1deXhb1ZX/nSc9yUnphM0OUKaUFr7EEqHAMJShxSZMoSxDOy0tMx1ogbasySSSHCeS7cRyEi9kkZwUmsIUKEyZUkrptHzdOyR2ClMoZSmRlHzdGUqJzb4klp70znxXXmLHequeFjt6f9rnnu3+dNdzzyEcYl8skbmRCNuCPg9NNj2eUKIgnOaSR65bdvK7hw8Vt0xxwmw2Op4YuRgkbQNwgrCzMAC4M+8D4k3BRm/rbPbHuG2zHgCbEmmfi0h0fNPkDp0OgHQURKMAOOCdG4KNnjtmMxBmLQBu/z3P25dWvgzgc4U60BQAADD4j8Tql4L+OY/MRiDMSgDEkul1BOrQ6zCzAJjgwfwTSOqNwcY5f5pNQJhVAIgnM18CIIZ7t1EnWQbAGEMi3HrcQjlwBVHOSMZM+P+sAEB/UrmAwaLjP2DW6XYBMM6foQZCvrotZuVVK92MBkAskfaTRFvBON+qg4sFQH6zQPRijnPXtfjqfmhVfrXQz0gAxBJ8pCQpm5hxrV1HOgGASbIHJPDS5T7vLrv6VKrdjANAPKV0gjlarMMcBsC4Ol9D+p3W4OlHvF6sfuVqP2MAEE9lriHGNgbqnHBOiQCQV00Fh1t83luc0LPUPKoeAP0p5WPMLBZbC5x0xjQAODSyTCwSGa8BfGPI733ASb2d5lW1AOjfnT6VVWkjwBc6bbTgV2oATNL5cRAFg43y/5bCjmJ5Vh0ANj77VoNL9q4n4LpijdNrX0YA5NUg4BuSLEeWnUwvlNIuq7yrCgD9SaWDweusGmGHvtwAmNCRORr0e7vs6FyKNlUBgP5k5osM6gf4sFIYWYhnxQAwqsx+MJYG/Z67ymWvlpyKAmBLMnuJCnUDAH+5HVFhAIyaS3iWmFoDPvln5bZ/XF5FABBPZs4g0DoGX1Ipw6sCABO9QA8iq64JLvKmyu2PsgIgnnznWJDcCcYN5Tb0YHlVBYADQNjkUd1dS/z0drn8UzYAOHWC55RjqhIAo8YxQw2W66Kp5ACIpzLXg+kWgA93qvOc4FPFABhfH+wBuC3Y6H3ICXvLvgjsT4x8nCVpLRgfLKUBdnlXPQDGDGPwDyUXRQMLPL+ya6teO8dHgP5dmb9nScTW8aWlULhYnkzY+qb6envU3zBtno3tzn4CqtpDgK9YOY63Z9zugRxd4qeXnOTtGAC2Prvv+JzsFkGVIiqnGr9vKTm1feWiut8bKRfbnbkRKgQQjjCiLf//qSPok7udkls0AB5gdv1lT7YTKq92SimH+exQc9Teskh+zCrfWELpIuI1VtuVgf7PBGlNwOe+t1hZRQEglszcTMBaAEcVq0gJ2qcY3B7yeb+rxbuhfeAc8b+h7mZNcNya4qMyrPSW+m7Cpv2D4FxXMRHLtgAQS6Y/SSKGvjoXeK8yoz3k93xVy6n14e0nkSRtAOOTeRrCd1lVVw73Lf6dVpvYb9KL4JZ6CPxPNjurdM0I90msdi331f3WqhBLANiczJztIupk5ousCioLPVE02ChrXrQcsepn82TJIwI1tA6iblfUzKrXbrngDU0gpJQLibkHwN+VxSZLQviWw+d4oteeSCNmm5kCwKbk/hNcLImXM9eYZVxmum2uN98KLzv7qDc1h/vIYBdgdj6ntUO9TVNfCR3EOJbKXj0KBD6uzLbqiyMaBnNX0Oe5zYxeugCIJtgzDxnR8REzzMpPQw9JyIX1hr76toElxNgIYI5F/fYzoXW4p1nXkbGUEh4bEUz9mCzqYJucGU9LLikaWOj+vh4TQ6XjST4WnH85e71tbZxuSHiU1Vwk5J+zU3ue3/EZIhI3je8rUvyfmHnlcN9539bi80CCPS9IykZiLCtSlnPNGc8wpGjI7/5eUQAYb7wlpZyjjkbjXuCclpY5/Q4SR4ILvQ9qtTymbcdilakPwFmWues3eEIiDr/Uc952LbJ4av/7APcGMH/GYdmm2THwmiQhGljo2WqmkeEIcDCTzYn0VdLoK9qTzAhwhIbxNkONhPx1t2rxm79qYJHqQjcxLnNEpgYTJjws5dC+95bm57SBoPwDmMXo85FS6jKNN1HsjTp3e7TYRWD8uf3nBRfN2aGnfDyprAbyI4JUSiMJvD7g82oeMh298qfHkcu7loAvllKPg3kzcCfn0mte3nDhi1pyN6fSl0v5izDzT9bs2cAP5bJoX3Gqd7cmKDX6tOAIIABAbtc2Bn1BL5p105NvHu2a491Yot3B1+Z65RU3fIAKbsl80YTnlZHhKFd4gUrMvUfV1UeTUX9Gy/n9qcxSZgggzLXXwZqtfs2sdoT8dT/WG40IfBdnczcV+lFrAgAuV36uY/B33SOZG5adoZ02JbYncxblIIa85qINZHqYXLnWwMK6PVq8GiI7QkB+npeLlucMAwXg8FDveTHdUTOR7nFoR/UyM1brHXZtfeqt+myd53YCjR525XKLbQHggEHUHfTJum/u46n0ZzG6AHuvZb8yfkVEKwI+eVCrbX1k4GoC1gM43jL/8jR4gYGO4d7me7TEiaNlBcomMGydqRBRX6BR1t2Wx5PKeoDbp+hQPADy7DKQpC8EF7rv0/NnLJnuEDF/5nzOzzOjVe8FzdFtg5dKzOLO4QxzPCtO9ZRKtOblnqYfaGkijpbJjU0AmXr4QsD9Gc4EV/oP07wOju/OXglVFZHGnmlyHQJAni9zPpp1SfAU+VEtA+/cze9+i5UtOi940yC0Bhs9Io1LwW/+yu1ns8slYguq8+jZEGf0Y8rluvZuWPxLTSCMHi1vArCoEA0Bv8wBwRafR5NHfJfyYSa+jUgn+MZJAExS9JucybaGTpv7Fy0D44nMaSCIt30TSZqIuCfQ6J06RE1ikL+sIUnsMK409PHMILiPWY3qXTbFE5lrQGJEGL1ZZbD4pQdDPu/9muB5Zt97yOMWp5yfNXRDiQAwJpfXBX1e3XvzzbvSl7skutiTlVtvPpVeK6TwvPDOIzxQO4mw3NCgGUjAjC0ZSF1v9J1b0H5hUjylRFhVOeT3irWU5hdPptcCZD4Go7QAEIjFWy4Jy5cv9Nxtp28awjtWA9QFEs/oZvHHwlXcOdR3nsk10lRfbNmduTanYgsB77bkpVIDYJIyj6sqRVpOkTWPTCcr3hAZvCmf8IHQYMmgmU7MGAJRdKi3SeQ2Mvw271IWSxL3AviQIXEhgjICYFz8t0ByONhIumnV5kcGAzx6ojjPlmEzt9EbBIru7W3q1x3qU/w+sCKmg38pytQKAGB8fXBL0OcN6yl/fPSxI5V0Nsrgfy/KyBnSmEBflr3u6AvRc141mOf7AFrliFmVA8D0ZAxaBh3b/osz1VwuyoSqDCkvtiOI8QPJ5Yr+tfsjT5rhFU9m2AydKZqZAIBxQ+rbBq4ghrhxrL74fFPenkaUZELXcE+zpXQxsxYA89sG7tz7273X49tX6GbbrG8bWEUMsT5wJDGUvb4rqtUIE6LDPc36CaM+84Br/snz79jb0zzlRnPWAqA+MridwOcxEBnubdbd74r1QSaj9IKrKCLJDCYId3g8csRonq+PDIQJ6GXQjuHepsWTWc96AIwZ+xqYrhvqa/qOnl/nRx75EENaD9BHzfi/cjT8c4Lasbf3/Mf1dGgID14O4v/A2OujQxkA4356AkTXDfU0/UbfcQNXQqIuMJvOC1wWMBD9Hqo44GnWvShraBs8FZzv+CkhazUAHOil+zL71aWv9y/WzbbZEB7oBOUXipU+ORRne11Dfc26iZ8OD2w/3DNHEiFtBe83agCY9jOlzqHeJnEFrPnl1wdpRQRhXF2WX/l0Ifd4vHLIaJ5viAyuAVgXIDUAFO7BfUS4bm9P838Zrw9c4lbs3DIBYSch12o0z89vG/g3Zojh3jAUrAYA/Z57BqClQ71NmvEHonlDeOBKEMSuolQRQy+AETac5yODHwZYDPenmQVkDQAmPEVE31ayudCrGxbrZtscWx8UnVF8ikqsdg31LdbleeTK7cfLbleMbbwLqAHABADGSRjUM9zbpBlQIujG1gficUSxQSX3ebzyMqN5vj4y2E3gNgtmTMXXIXwOYNdnWTCWDPU165Z1Gz0/cG8B2OI1Kj1OyC43mucbwgPXgyDeDxrWKdIztDYC2IQBM1KAGhruW6wZGz+xPgD6QThaVxTjZQABo3m+Prz9IkCKEaHRpuq1EcAJx03i8X1XDuG/bmjWzbbZEN4eBUmFn36bmOePXTnQmHPlF5ofd1L/2gjgkDcJ2OryvivyYvTMfVosC6wPDOf546JPzs2l3+lllOYFcA0ADgFggg1hxVBP82aj8wPxf8N5vm2gBZyP2C3ZVwNAaVz7BwatGu5t0nxOrie2PjL4aQKLq9z3l0a9A1xrACithx+RchR5aUPTE2bEHLNy8CzVlQ/AtFyP0Az/QjQ1ANj1nIV2BLqbKRMZ6vno3kLNGtp+Pp/Y08tg2/UILahT2wXYdVbR7Qqs9ktyemhB0doIYMFZRZMWBIDO9rBogcYMagAw9pFzFDUATNosFXCryBAyniDCCa8fnJp9PCbQCd62eNQAUAPAwTd7uieEtlBmrVFtCrDmr+KoayNAbQSojQCjGDBMElXcT220dW0NYOzF2hRg7CPnKGpTQG0KqE0BtSlgSnxfbRcwaYCtnQM4N9uY5VRbA5j1lBN0tTVAbQ1QWwPU1gC1NUDtHODAfFJbBJZxEdgQHrgHhM87MZ3b4lGFawAw7h3qa57yyHXWJogQnVYfHjidgG4QLrbVicU0qqaAEMaPGGgf7mt++mCTZjUAxo1taBv8GJhFLdzy1eGrDgD8GkTtQz1NP9HC8owHAANPuyRqW75Q1n21IxzQ0DZ41RgQrNcasDoaVBYAz491/DeM1N6yW7kop7IoYn26Ea3h/8ubJo5eBHN70O/5uqFiBxGMVQMRI0LpMoNVBgAjooiDUVWRQv4azSRO3UUVqSwHAIgoB0Z7wCfrpkXrT+x/b8A/53k9cMyPDIhXOLoZRq2Ca4K+zAAgoG9vb7NulQ8zPulPKqtA6GZml2XbSw0AIoq/vtC9IkqkainXnxy5gEFxgPwAbvOwHF7ip7e16PMpZEeUjUz4gmWD9RqUCQDEuEuuk1v1npbfluDDMpTPBbwE4ASBgwFf3c+01I8yS4fvzm5i5qAln5QOAPxNwNMS9NFfNTt+Ny9Q1UyMQJdMp6F1QZ+sW2vgqMhjCyVSNjhWE7DEABC1BVWWV77Se45mGTfhh3hSWQvwtJz/DP6hJHlCgYWkWTgrX9EVmc0AGReLEMIcBwDhEVXFiha/Z9r2ZbyT+558dZ537mHihc1NBmjNMNRwyFcX16Orbx9oIjVfncziW/+DuJYOAI+zhJXD3c2aha+EJrHkSJAgiV/99No+U1Xdlt73diR85pGa1cw3JzKnSxJEESr9V0wOAiDBrK7Qq1WXNzKVDhOT6HzTH4FeUonDoUaPZtUtwazoN3vOA8DUG8RYKnO1xNTH4GNMO0WUjyGOhBr1K4jEEiMXEUniAauYXqd/DgDgFVbREjpFv3P6E+mrmEgoMt+KkZNpCUiqJIVDje6H9Xg0tO+8GaoqFpyHWZLlHADehiStGuo+9yt68mOp7GUSq31cXPLrvcS8IuD36m4fY7syV5ME8So6X3to4isOALwq6POKoVfz25JQ/lEl7nG0aDPjUXJTOLBA/oUuENoGohjNLm7ucwIAhK6hnmbdpFH9e5SPcJb7QPiwOcVMUT0hMbUt98v/o0cdT6ZXAvmytaOfLQAwYkG/p0VP0NZE2pcDukD0aVPq2yFifjhLaGv1eXdpNRelZF9Ov9IPsNF6AygKALTtaO9RAb1SsRuT6VPcDFEltHSFrJkfdAGdy/zepC4QEpnNIIQsA0B21z23tJFe0WL+lT/zESP7lChxaTJmaMi9h13Z9tAC7TJ1R0Z/ebw7k+4H43JNx9gBAOE7WY838Gr0bM0UdbE9+95DObc4xCpb5lImbK2bK0dvPqFwJTbhg3y10uzIItOlY41+pGKBJ4HWM8P6gYQRcxP/JyA+53C544bjSDMNzNFtg2dIzKIez/TsodYAsFMlCrzc0/SUlmq3v8hz97+urGfA2t7chK1mSIiQU8EdRgvFQrwsJVrOr2KBTmacaEax0tPQmqBP1i2/Vh/eeRFJ3A/mBRP6mAEA0R5WKTDcd67uPUY8qawG8mVtK/4R4Y8q0GW0i5qsqCkAxFLKhRJYdPw5FbdyugJvEyESaPSI1KyaX0PbwOfBECPCEQZrgNdACAz1NN+rx2+sJLzY5lrbgZTBgUR4TAV1hRrlnxqJMwUAwSSeyn4KrIpVb8Eat0aCyvD/51Xm9haDbVJDZGAFWD1sekxgPv38O0O9zbrJoDYn0ldJ+YsZGxXSy+AEAM+BpGiw0f2QGXGmATDOLJ7MLAHydXz0Ey6akV4ammcAqSPoc2tW7rYjNp7MXgqoonS96QTQduQU0UYkuIwGfR6RtdT0ZxkAgjMzU38qsw4g3Xy9prUoASExtpNEHcsb5ceKYb8lpZzDKq9nwpR6PsXwdL4tdwcaPauJyHKZOVsAGDdg83P7/lZyucVo4OxtnaMeoodyrK5eYbBfPljkpkTa5yJpHcCfclQdZ5ndpeay0ZZFc//PLtuiADAuNJbInEWi/CtR+eP7zFrOuAskd+jdWubXOuKWjZX1cPoK2qyeZuiYf8SgaMjvMZX2To+lIwA4AIT0JySiTnYihMmMI2zQEGPzvLlyx7Un0sjk5nf/keve2KeIoV735NOGSMeaEPC0ytwV8nu/5xRTRwEwaUS4cRQI1m69nDLKDJ+DcxY4GoBpRgELNPlb0nzHe75qoZkp0pIAYNKI0EVEusEeprQsAdFMAQAzrw35veYvuiz6qqQAELqIO4P0PqWv2ip/Vj0ACHd458phvTN+i31dkLzkAJgYDVLpRQSpG8yluyGz4JGqBQDRwwy1PdTofc6CObZJywaACSDsVi4ilcX5/Zm2tXagYRUC4EmWaHXIxBsKB8yfYFF2AIxL7k9mv8jIdQH0HicNMsuregDAfyG4OgM+951mdXeSrmIAGDdi7DZNHCZJThpmxKsKAKACFDW6zTSyo9j/VxwAwoBogj3zSBE3dcbRPMVaPNa+wgDY9gbLgaifMg6ZY5tNVQBgYjT4zcj74SYR6/7Pti0y2bAyAOD/RpZbgqfW/cGkmiUnqyoATCwUE8q5RCxqARcX/6/jvjID4HFmag355Z0l71GLAqoSAOM2bElm/1WFKh5QnGDRLkPyMgHgzxKk8HKf+35DhSpEUNUAmJgaEiMrQJIIwjB6SWPajSUGQAastgf9dSWtNGbaWB3CGQGAAzuGjHg6FnDC8BICoD/o81QkONSOX2YUAISB237HDWkle6udCt2THeQ0AERlc6/sXnrTSTRkpyMq1WbGAWDSaHAGCFvB9l7dOAYAwqNgLAv6PJph45XqXDNyZywAJnYMqexlBFU8BLFU3LFoABD+wJACRu8XzXRCJWlmPAAmdgy7MzeqKmIA5phxaBEA2C9JCC1f6PzdvBm9naaZNQA4MDWk15sJVrUHAO4O+rwdTndCJfnNOgAIZ258lt/l9ii3gnGNlnMtAYDw9WxGXtr6QXqnkp1VCtmzEgDjjup/dmQBy5J4MfTRg51nEgA/J0VdGvhgnWaqllJ0Sjl5zmoAHDhIUs4HsQBC4/jfDACQAtPSoF9+pJydUQlZhwQAJm0dPwfQrQD/TWEA0JsALw36PP9Zic6ohMxDCgAHRoR0JOj3TslfFE9M/1slOqTcMg9JAJTbydUs7/8B948hNXaE0z0AAAAASUVORK5CYII=;" vertex="1" parent="1">
                    <mxGeometry x="442" y="256" width="80" height="80" as="geometry"/>
                </mxCell>
                <mxCell id="6" value=".png" style="ellipse;whiteSpace=wrap;html=1;aspect=fixed;fillColor=#f8cecc;strokeColor=#b85450;" vertex="1" parent="1">
                    <mxGeometry x="290" y="168" width="56" height="56" as="geometry"/>
                </mxCell>
                <mxCell id="32" style="edgeStyle=orthogonalEdgeStyle;rounded=0;orthogonalLoop=1;jettySize=auto;html=1;entryX=1;entryY=0.5;entryDx=0;entryDy=0;strokeWidth=2;" edge="1" parent="1" source="7" target="29">
                    <mxGeometry relative="1" as="geometry"/>
                </mxCell>
                <mxCell id="7" value=".css" style="ellipse;whiteSpace=wrap;html=1;aspect=fixed;fillColor=#dae8fc;strokeColor=#6c8ebf;" vertex="1" parent="1">
                    <mxGeometry x="197" y="371" width="56" height="56" as="geometry"/>
                </mxCell>
                <mxCell id="17" style="edgeStyle=orthogonalEdgeStyle;rounded=0;orthogonalLoop=1;jettySize=auto;html=1;entryX=1;entryY=0.5;entryDx=0;entryDy=0;strokeWidth=2;" edge="1" parent="1" source="8" target="11">
                    <mxGeometry relative="1" as="geometry"/>
                </mxCell>
                <mxCell id="23" style="edgeStyle=orthogonalEdgeStyle;rounded=0;orthogonalLoop=1;jettySize=auto;html=1;entryX=0.5;entryY=1;entryDx=0;entryDy=0;strokeWidth=2;" edge="1" parent="1" source="8" target="10">
                    <mxGeometry relative="1" as="geometry"/>
                </mxCell>
                <mxCell id="25" style="edgeStyle=orthogonalEdgeStyle;rounded=0;orthogonalLoop=1;jettySize=auto;html=1;entryX=0.5;entryY=0;entryDx=0;entryDy=0;strokeWidth=2;" edge="1" parent="1" source="8" target="7">
                    <mxGeometry relative="1" as="geometry"/>
                </mxCell>
                <mxCell id="8" value=".js" style="ellipse;whiteSpace=wrap;html=1;aspect=fixed;fillColor=#ffe6cc;strokeColor=#d79b00;" vertex="1" parent="1">
                    <mxGeometry x="197" y="268" width="56" height="56" as="geometry"/>
                </mxCell>
                <mxCell id="21" style="edgeStyle=orthogonalEdgeStyle;rounded=0;orthogonalLoop=1;jettySize=auto;html=1;entryX=1;entryY=0.5;entryDx=0;entryDy=0;strokeWidth=2;" edge="1" parent="1" source="9" target="8">
                    <mxGeometry relative="1" as="geometry"/>
                </mxCell>
                <mxCell id="26" style="edgeStyle=orthogonalEdgeStyle;rounded=0;orthogonalLoop=1;jettySize=auto;html=1;strokeWidth=2;" edge="1" parent="1" source="9" target="6">
                    <mxGeometry relative="1" as="geometry"/>
                </mxCell>
                <mxCell id="28" style="edgeStyle=orthogonalEdgeStyle;rounded=0;orthogonalLoop=1;jettySize=auto;html=1;entryX=0.5;entryY=0;entryDx=0;entryDy=0;strokeWidth=2;" edge="1" parent="1" source="9" target="27">
                    <mxGeometry relative="1" as="geometry"/>
                </mxCell>
                <mxCell id="9" value=".js" style="ellipse;whiteSpace=wrap;html=1;aspect=fixed;fillColor=#ffe6cc;strokeColor=#d79b00;" vertex="1" parent="1">
                    <mxGeometry x="290" y="268" width="56" height="56" as="geometry"/>
                </mxCell>
                <mxCell id="24" style="edgeStyle=orthogonalEdgeStyle;rounded=0;orthogonalLoop=1;jettySize=auto;html=1;strokeWidth=2;" edge="1" parent="1" source="10" target="6">
                    <mxGeometry relative="1" as="geometry"/>
                </mxCell>
                <mxCell id="31" style="edgeStyle=orthogonalEdgeStyle;rounded=0;orthogonalLoop=1;jettySize=auto;html=1;entryX=1;entryY=0.5;entryDx=0;entryDy=0;strokeWidth=2;" edge="1" parent="1" source="10" target="30">
                    <mxGeometry relative="1" as="geometry"/>
                </mxCell>
                <mxCell id="10" value=".less" style="ellipse;whiteSpace=wrap;html=1;aspect=fixed;fillColor=#dae8fc;strokeColor=#6c8ebf;" vertex="1" parent="1">
                    <mxGeometry x="197" y="168" width="56" height="56" as="geometry"/>
                </mxCell>
                <mxCell id="11" value=".mp3" style="ellipse;whiteSpace=wrap;html=1;aspect=fixed;fillColor=#d5e8d4;strokeColor=#82b366;" vertex="1" parent="1">
                    <mxGeometry x="104" y="268" width="56" height="56" as="geometry"/>
                </mxCell>
                <mxCell id="27" value=".html" style="ellipse;whiteSpace=wrap;html=1;aspect=fixed;fillColor=#b0e3e6;strokeColor=#0e8088;" vertex="1" parent="1">
                    <mxGeometry x="290" y="371" width="56" height="56" as="geometry"/>
                </mxCell>
                <mxCell id="29" value=".gif" style="ellipse;whiteSpace=wrap;html=1;aspect=fixed;fillColor=#f8cecc;strokeColor=#b85450;" vertex="1" parent="1">
                    <mxGeometry x="104" y="371" width="56" height="56" as="geometry"/>
                </mxCell>
                <mxCell id="30" value=".css" style="ellipse;whiteSpace=wrap;html=1;aspect=fixed;fillColor=#dae8fc;strokeColor=#6c8ebf;" vertex="1" parent="1">
                    <mxGeometry x="104" y="168" width="56" height="56" as="geometry"/>
                </mxCell>
                <mxCell id="33" value="" style="shape=flexArrow;endArrow=classic;html=1;strokeWidth=2;gradientColor=#7ea6e0;fillColor=#dae8fc;strokeColor=#6c8ebf;gradientDirection=east;" edge="1" parent="1">
                    <mxGeometry width="50" height="50" relative="1" as="geometry">
                        <mxPoint x="363" y="295.5" as="sourcePoint"/>
                        <mxPoint x="431" y="296" as="targetPoint"/>
                    </mxGeometry>
                </mxCell>
                <mxCell id="34" value=".js" style="ellipse;whiteSpace=wrap;html=1;aspect=fixed;fillColor=#ffe6cc;strokeColor=#d79b00;" vertex="1" parent="1">
                    <mxGeometry x="599" y="222" width="56" height="56" as="geometry"/>
                </mxCell>
                <mxCell id="36" value=".html" style="ellipse;whiteSpace=wrap;html=1;aspect=fixed;fillColor=#b0e3e6;strokeColor=#0e8088;" vertex="1" parent="1">
                    <mxGeometry x="679" y="222" width="56" height="56" as="geometry"/>
                </mxCell>
                <mxCell id="37" value=".css" style="ellipse;whiteSpace=wrap;html=1;aspect=fixed;fillColor=#dae8fc;strokeColor=#6c8ebf;" vertex="1" parent="1">
                    <mxGeometry x="599" y="306" width="56" height="56" as="geometry"/>
                </mxCell>
                <mxCell id="38" value=".mp3" style="ellipse;whiteSpace=wrap;html=1;aspect=fixed;fillColor=#d5e8d4;strokeColor=#82b366;" vertex="1" parent="1">
                    <mxGeometry x="679" y="306" width="56" height="56" as="geometry"/>
                </mxCell>
                <mxCell id="39" value="" style="shape=flexArrow;endArrow=classic;html=1;strokeWidth=2;gradientColor=#7ea6e0;fillColor=#dae8fc;strokeColor=#6c8ebf;gradientDirection=east;" edge="1" parent="1">
                    <mxGeometry width="50" height="50" relative="1" as="geometry">
                        <mxPoint x="531" y="295.5" as="sourcePoint"/>
                        <mxPoint x="599" y="296" as="targetPoint"/>
                    </mxGeometry>
                </mxCell>
            </root>
        </mxGraphModel>
    </diagram>
</mxfile>